<svg width="106" height="27" viewBox="0 0 106 27" fill="none" xmlns="http://www.w3.org/2000/svg">
<path d="M21.6232 16.1388C21.4832 15.8384 21.3546 15.4885 21.1729 15.1691C18.5846 10.6477 16.0227 6.10735 13.3436 1.63922C13.0181 1.09544 12.0645 0.677142 11.3834 0.650523C8.44311 0.540246 5.49905 0.593483 2.55499 0.604891C0.000704211 0.620102 -0.63503 1.68485 0.632655 3.8904C2.78961 7.64743 4.98819 11.3817 7.16785 15.1273C9.09398 18.4394 10.986 21.7705 12.9576 25.0522C14.0096 26.8091 15.4211 26.8813 16.4579 25.2082C18.1418 22.4854 19.6971 19.6867 21.3016 16.9145C21.4227 16.6978 21.4946 16.4506 21.6232 16.1388ZM14.8951 0.897697C17.4796 5.39625 19.9885 9.75411 22.5428 14.1994C23.8975 13.0472 24.0527 12.0813 23.2391 10.758C21.4946 7.92883 19.8409 5.035 18.2592 2.11075C17.5402 0.791222 16.6774 0.251243 14.8951 0.897697ZM19.4322 0.890091C21.2713 4.07673 23.0272 7.11126 24.8171 10.2104C26.2664 9.09625 26.3383 8.09234 25.4982 6.81465C24.503 5.30119 23.5948 3.71547 22.785 2.09554C22.1114 0.74559 21.207 0.262651 19.4322 0.890091ZM23.818 0.612496C25.0895 2.79903 26.0885 4.52924 27.2767 6.57508C28.113 5.14528 28.7753 4.16419 29.2786 3.10705C29.9143 1.76851 29.2937 0.730379 27.8141 0.627707C26.6486 0.547851 25.4717 0.612496 23.818 0.612496Z" fill="url(#paint0_linear)"/>
<path d="M47.3374 5.85449L43.3543 17.0976H41.4187L37.4357 5.85449H39.4992L42.3785 14.1262L45.2738 5.85449H47.3374Z" fill="url(#paint1_linear)"/>
<path d="M51.0862 17.2582C50.2438 17.2582 49.5133 17.0708 48.8948 16.696C48.2762 16.3213 47.8017 15.818 47.4711 15.1863C47.1405 14.5545 46.9752 13.8585 46.9752 13.0983C46.9752 12.338 47.1405 11.6367 47.4711 10.9942C47.8017 10.3517 48.2762 9.84311 48.8948 9.46834C49.5133 9.09357 50.2438 8.90619 51.0862 8.90619C51.9287 8.90619 52.6592 9.09357 53.2777 9.46834C53.8963 9.84311 54.3708 10.3517 54.7014 10.9942C55.032 11.6367 55.1973 12.338 55.1973 13.0983C55.1973 13.8585 55.032 14.5545 54.7014 15.1863C54.3708 15.818 53.8963 16.3213 53.2777 16.696C52.6592 17.0708 51.9287 17.2582 51.0862 17.2582ZM51.0862 15.6199C51.7368 15.6199 52.2433 15.3897 52.6059 14.9293C52.9791 14.4688 53.1658 13.8585 53.1658 13.0983C53.1658 12.3273 52.9791 11.7116 52.6059 11.2512C52.2433 10.78 51.7368 10.5445 51.0862 10.5445C50.4357 10.5445 49.9239 10.78 49.5506 11.2512C49.188 11.7116 49.0067 12.3273 49.0067 13.0983C49.0067 13.8585 49.188 14.4688 49.5506 14.9293C49.9239 15.3897 50.4357 15.6199 51.0862 15.6199Z" fill="url(#paint2_linear)"/>
<path d="M59.7452 21.1451C58.6148 21.1451 57.7137 20.9363 57.0419 20.5187C56.37 20.1118 56.0341 19.555 56.0341 18.8483C56.0341 18.0773 56.466 17.4456 57.3298 16.953C56.8606 16.6639 56.626 16.2838 56.626 15.8127C56.626 15.5664 56.6953 15.3469 56.8339 15.1541C56.9832 14.9614 57.1805 14.8061 57.4258 14.6883C57.0205 14.3992 56.7113 14.0298 56.498 13.5801C56.2954 13.1304 56.1941 12.6378 56.1941 12.1024C56.1941 11.5135 56.322 10.9781 56.578 10.4963C56.8339 10.0037 57.2072 9.61825 57.6977 9.33985C58.1883 9.05074 58.7695 8.90619 59.4413 8.90619C60.1451 8.90619 60.753 9.07751 61.2649 9.42016C61.4462 9.32379 61.6861 9.24348 61.9847 9.17923C62.294 9.10428 62.6246 9.0668 62.9765 9.0668H63.4884L63.3604 10.3196H62.6406C62.4593 10.3196 62.31 10.325 62.1927 10.3357C62.5126 10.8282 62.6726 11.4171 62.6726 12.1024C62.6726 12.6914 62.5446 13.2321 62.2886 13.7247C62.0434 14.2065 61.6755 14.592 61.1849 14.8811C60.6943 15.1595 60.1132 15.2987 59.4413 15.2987C59.196 15.2987 58.9134 15.2612 58.5935 15.1863C58.4762 15.2398 58.4175 15.3255 58.4175 15.4432C58.4175 15.5824 58.4975 15.6949 58.6575 15.7805C58.8281 15.8555 59.1107 15.9197 59.5053 15.9733L60.881 16.15C62.7152 16.3962 63.6323 17.1725 63.6323 18.4789C63.6323 19.2927 63.2857 19.9405 62.5926 20.4223C61.9101 20.9042 60.961 21.1451 59.7452 21.1451ZM59.4413 13.821C59.8999 13.821 60.2518 13.6711 60.4971 13.3713C60.753 13.0608 60.881 12.6378 60.881 12.1024C60.881 11.5671 60.753 11.1495 60.4971 10.8496C60.2518 10.5391 59.8999 10.3839 59.4413 10.3839C58.9721 10.3839 58.6095 10.5391 58.3536 10.8496C58.1083 11.1495 57.9856 11.5671 57.9856 12.1024C57.9856 12.6378 58.1083 13.0608 58.3536 13.3713C58.6095 13.6711 58.9721 13.821 59.4413 13.821ZM59.8252 19.6353C61.1902 19.6353 61.8727 19.298 61.8727 18.6234C61.8727 18.3236 61.7554 18.0988 61.5208 17.9488C61.2862 17.8096 60.897 17.6972 60.3531 17.6116L58.5935 17.3546C57.9856 17.6008 57.6817 17.9756 57.6817 18.4789C57.6817 18.8644 57.8683 19.1535 58.2416 19.3462C58.6148 19.5389 59.1427 19.6353 59.8252 19.6353Z" fill="url(#paint3_linear)"/>
<path d="M71.5661 9.0668V17.0976H69.7105L69.6786 16.6157C69.4333 16.7978 69.1507 16.953 68.8307 17.0815C68.5108 17.1993 68.2016 17.2582 67.903 17.2582C66.7192 17.2582 65.8554 16.9156 65.3116 16.2303C64.7784 15.545 64.5118 14.5973 64.5118 13.3874V9.0668H66.4953V13.3874C66.4953 14.1369 66.6179 14.6937 66.8632 15.0578C67.1191 15.4111 67.5244 15.5878 68.0789 15.5878C68.6975 15.5878 69.1987 15.3629 69.5826 14.9132V9.0668H71.5661Z" fill="url(#paint4_linear)"/>
<path d="M77.2729 17.2582C76.3451 17.2582 75.5506 17.0708 74.8895 16.696C74.239 16.3106 73.7484 15.8019 73.4178 15.1702C73.0979 14.5277 72.9379 13.8157 72.9379 13.034C72.9379 12.2845 73.0926 11.5992 73.4018 10.9781C73.7111 10.3571 74.159 9.86453 74.7455 9.50047C75.332 9.1257 76.0305 8.93831 76.841 8.93831C77.5875 8.93831 78.2167 9.09357 78.7286 9.4041C79.2511 9.71462 79.6404 10.1322 79.8963 10.6569C80.1629 11.1816 80.2962 11.7705 80.2962 12.4237C80.2962 12.7449 80.2536 13.109 80.1682 13.5159H75.0014C75.1081 14.2226 75.3854 14.7526 75.8332 15.1059C76.2811 15.4486 76.8197 15.6199 77.4489 15.6199C78.3127 15.6199 79.1125 15.4004 79.8483 14.9614L79.9443 16.6479C79.603 16.8299 79.2031 16.9798 78.7446 17.0976C78.2967 17.2047 77.8061 17.2582 77.2729 17.2582ZM78.2807 12.1667C78.2807 11.7491 78.1634 11.3797 77.9288 11.0584C77.6941 10.7372 77.3316 10.5766 76.841 10.5766C76.3505 10.5766 75.9559 10.7211 75.6573 11.0103C75.3587 11.2994 75.1561 11.6848 75.0494 12.1667H78.2807Z" fill="url(#paint5_linear)"/>
<path d="M81.7043 5.85449H85.6873C88.3427 5.85449 89.6704 7.06446 89.6704 9.4844C89.6704 10.7372 89.3345 11.6688 88.6626 12.2791C87.9908 12.8895 87.015 13.1946 85.7353 13.1946H83.7518V17.0976H81.7043V5.85449ZM85.4954 11.476C86.1992 11.476 86.7218 11.3154 87.063 10.9942C87.4149 10.673 87.5909 10.1804 87.5909 9.51653C87.5909 8.85265 87.4149 8.36545 87.063 8.05493C86.7111 7.73369 86.1726 7.57308 85.4474 7.57308H83.7518V11.476H85.4954Z" fill="url(#paint6_linear)"/>
<path d="M92.4539 17.2582C91.7927 17.2582 91.2382 17.044 90.7903 16.6157C90.353 16.1767 90.1344 15.5878 90.1344 14.849C90.1344 14.153 90.385 13.5962 90.8862 13.1786C91.3875 12.7503 91.9793 12.4504 92.6618 12.2791C93.3443 12.0971 94.0002 11.9954 94.6294 11.9739C94.6081 11.5028 94.4854 11.1655 94.2615 10.9621C94.0482 10.7586 93.6909 10.6569 93.1897 10.6569C92.8378 10.6569 92.4912 10.7051 92.15 10.8015C91.8194 10.8978 91.4355 11.0531 90.9982 11.2672L90.8223 9.64502C91.7927 9.17388 92.7631 8.93831 93.7336 8.93831C94.672 8.93831 95.3865 9.1953 95.8771 9.70927C96.3783 10.2232 96.6289 11.0424 96.6289 12.1667V14.335C96.6289 14.7419 96.6449 15.0363 96.6769 15.2184C96.7196 15.3897 96.7836 15.5021 96.8689 15.5557C96.9648 15.5985 97.1195 15.6199 97.3328 15.6199H97.5887L97.4127 17.2582H96.6929C96.2557 17.2582 95.8878 17.1779 95.5892 17.0173C95.2906 16.846 95.0613 16.6157 94.9013 16.3266C94.6454 16.6157 94.2935 16.846 93.8456 17.0173C93.4083 17.1779 92.9444 17.2582 92.4539 17.2582ZM93.2857 15.7323C93.4883 15.7323 93.7176 15.6842 93.9735 15.5878C94.2295 15.4807 94.4534 15.3362 94.6454 15.1541V13.3231C94.0055 13.3552 93.4403 13.4944 92.9498 13.7407C92.4592 13.987 92.2139 14.3296 92.2139 14.7687C92.2139 15.1006 92.2993 15.3469 92.4699 15.5075C92.6405 15.6574 92.9124 15.7323 93.2857 15.7323Z" fill="url(#paint7_linear)"/>
<path d="M100.765 16.5675L97.4377 9.0668H99.6452L101.693 14.2386L103.772 9.0668H105.98L100.973 20.9845H98.9894L100.765 16.5675Z" fill="url(#paint8_linear)"/>
<defs>
<linearGradient id="paint0_linear" x1="29.5267" y1="0.582032" x2="3.91947" y2="29.8474" gradientUnits="userSpaceOnUse">
<stop stop-color="#00C4F9"/>
<stop offset="1" stop-color="#64D9FF"/>
<stop offset="1" stop-color="white"/>
</linearGradient>
<linearGradient id="paint1_linear" x1="105.98" y1="5.85449" x2="99.4812" y2="34.986" gradientUnits="userSpaceOnUse">
<stop stop-color="#263C8B"/>
<stop offset="1" stop-color="#060E4C"/>
</linearGradient>
<linearGradient id="paint2_linear" x1="105.98" y1="5.85449" x2="99.4812" y2="34.986" gradientUnits="userSpaceOnUse">
<stop stop-color="#263C8B"/>
<stop offset="1" stop-color="#060E4C"/>
</linearGradient>
<linearGradient id="paint3_linear" x1="105.98" y1="5.85449" x2="99.4812" y2="34.986" gradientUnits="userSpaceOnUse">
<stop stop-color="#263C8B"/>
<stop offset="1" stop-color="#060E4C"/>
</linearGradient>
<linearGradient id="paint4_linear" x1="105.98" y1="5.85449" x2="99.4812" y2="34.986" gradientUnits="userSpaceOnUse">
<stop stop-color="#263C8B"/>
<stop offset="1" stop-color="#060E4C"/>
</linearGradient>
<linearGradient id="paint5_linear" x1="105.98" y1="5.85449" x2="99.4812" y2="34.986" gradientUnits="userSpaceOnUse">
<stop stop-color="#263C8B"/>
<stop offset="1" stop-color="#060E4C"/>
</linearGradient>
<linearGradient id="paint6_linear" x1="105.98" y1="5.85449" x2="99.4812" y2="34.986" gradientUnits="userSpaceOnUse">
<stop stop-color="#263C8B"/>
<stop offset="1" stop-color="#060E4C"/>
</linearGradient>
<linearGradient id="paint7_linear" x1="105.98" y1="5.85449" x2="99.4812" y2="34.986" gradientUnits="userSpaceOnUse">
<stop stop-color="#263C8B"/>
<stop offset="1" stop-color="#060E4C"/>
</linearGradient>
<linearGradient id="paint8_linear" x1="105.98" y1="5.85449" x2="99.4812" y2="34.986" gradientUnits="userSpaceOnUse">
<stop stop-color="#263C8B"/>
<stop offset="1" stop-color="#060E4C"/>
</linearGradient>
</defs>
</svg>
